<svg xmlns="http://www.w3.org/2000/svg" width="75" height="75" viewBox="0 0 512 512" version="1.1">
    <path d="M 119.137 41.369 C 114.065 43.205, 108.531 48.340, 106.138 53.430 L 104 57.978 104 206.815 L 104 355.651 106.314 357.826 C 109.481 360.800, 114.957 360.739, 117.816 357.696 L 119.980 355.392 120.240 208.224 L 120.500 61.055 122.775 58.778 C 124.879 56.671, 126.064 56.475, 138.525 56.173 L 152 55.845 152 117.748 L 152 179.651 154.314 181.826 C 157.488 184.807, 162.407 184.684, 165.545 181.545 L 168 179.091 168 117.545 L 168 56 277.545 56 L 387.091 56 389.545 58.455 C 391.856 60.766, 392 61.558, 392 72 C 392 82.442, 392.144 83.234, 394.455 85.545 C 397.702 88.793, 402.847 88.857, 405.826 85.686 C 407.805 83.579, 408 82.311, 408 71.552 C 408 65.051, 407.450 57.880, 406.778 55.616 C 405.170 50.204, 397.796 42.830, 392.384 41.222 C 386.437 39.456, 124.033 39.597, 119.137 41.369 M 394.455 98.455 L 392 100.909 392 260 L 392 419.091 389.545 421.545 L 387.091 424 277.545 424 L 168 424 168 310.455 L 168 196.909 165.545 194.455 C 162.298 191.207, 157.153 191.143, 154.174 194.314 L 152 196.629 152 310.392 L 152 424.155 138.525 423.827 C 120.636 423.393, 120.632 423.389, 120.167 407.725 C 119.878 397.994, 119.555 396.200, 117.743 394.250 C 114.863 391.152, 109.115 391.184, 106.174 394.314 C 104.195 396.421, 104 397.689, 104 408.448 C 104 423.148, 105.151 427.207, 110.972 433.028 C 116.982 439.037, 120.695 440, 137.866 440 L 152 440 152 461.826 C 152 483.347, 152.032 483.682, 154.314 485.826 C 157.885 489.180, 161.882 488.544, 173.488 482.772 L 184 477.544 194.512 482.772 C 206.349 488.659, 210.451 489.278, 213.826 485.686 C 215.920 483.456, 216 482.574, 216 461.686 L 216 440 302.750 439.978 C 387.907 439.956, 389.583 439.919, 394 437.916 C 400.048 435.174, 402.813 432.458, 405.623 426.500 L 407.980 421.500 407.990 260.924 L 408 100.349 405.686 98.174 C 402.512 95.193, 397.593 95.316, 394.455 98.455 M 220.980 120.731 C 209.408 132.444, 199.597 143.244, 198.480 145.500 C 195.783 150.949, 195.783 161.051, 198.480 166.500 C 199.597 168.756, 209.408 179.556, 220.980 191.269 C 243.082 213.639, 243.934 214.199, 249.365 209.927 C 251.375 208.346, 252 206.965, 252 204.103 C 252 200.579, 250.781 199.094, 232 179.723 C 214.751 161.932, 212 158.669, 212 156 C 212 153.331, 214.751 150.068, 232 132.277 C 250.781 112.906, 252 111.421, 252 107.897 C 252 105.035, 251.375 103.654, 249.365 102.073 C 243.934 97.801, 243.082 98.361, 220.980 120.731 M 310.635 102.073 C 308.632 103.648, 308.005 105.027, 308.019 107.823 C 308.037 111.237, 309.468 112.982, 328.019 132.210 C 345.187 150.004, 348 153.353, 348 156 C 348 158.647, 345.187 161.996, 328.019 179.790 C 309.468 199.018, 308.037 200.763, 308.019 204.177 C 308.005 206.973, 308.632 208.352, 310.635 209.927 C 316.022 214.165, 316.918 213.578, 339.122 191.250 C 350.471 179.837, 360.590 168.925, 361.608 167 C 362.935 164.492, 363.460 161.374, 363.460 156 C 363.460 150.626, 362.935 147.508, 361.608 145 C 360.590 143.075, 350.471 132.162, 339.122 120.750 C 316.918 98.422, 316.022 97.835, 310.635 102.073 M 285.646 110.250 C 283.570 112.144, 281.507 118.857, 272.590 152.728 C 266.766 174.854, 262 194.508, 262 196.406 C 262 198.941, 262.698 200.404, 264.635 201.927 C 268.048 204.613, 271.270 204.554, 274.402 201.750 C 276.553 199.825, 278.503 193.467, 287.912 157.694 C 299.567 113.380, 299.628 112.954, 294.841 109.601 C 291.670 107.380, 288.549 107.601, 285.646 110.250 M 194.884 269.893 C 193.102 271.336, 192.545 272.790, 192.545 276 C 192.545 279.210, 193.102 280.664, 194.884 282.107 C 197.136 283.930, 200.270 284, 280.156 284 L 363.091 284 365.545 281.545 C 367.093 279.998, 368 277.948, 368 276 C 368 274.052, 367.093 272.002, 365.545 270.455 L 363.091 268 280.156 268 C 200.270 268, 197.136 268.070, 194.884 269.893 M 194.884 305.893 C 193.102 307.336, 192.545 308.790, 192.545 312 C 192.545 315.210, 193.102 316.664, 194.884 318.107 C 197.130 319.926, 200.090 320, 270.555 320 L 343.888 320 346.611 317.658 C 350.346 314.445, 350.346 309.555, 346.611 306.342 L 343.888 304 270.555 304 C 200.090 304, 197.130 304.074, 194.884 305.893 M 194.884 341.893 C 193.102 343.336, 192.545 344.790, 192.545 348 C 192.545 351.210, 193.102 352.664, 194.884 354.107 C 197.136 355.930, 200.270 356, 280.156 356 L 363.091 356 365.545 353.545 C 367.093 351.998, 368 349.948, 368 348 C 368 346.052, 367.093 344.002, 365.545 342.455 L 363.091 340 280.156 340 C 200.270 340, 197.136 340.070, 194.884 341.893 M 106.174 370.314 C 101.208 375.601, 104.870 384, 112.140 384 C 116.756 384, 120 380.640, 120 375.860 C 120 368.760, 111.019 365.157, 106.174 370.314 M 168 453 C 168 460.150, 168.238 466, 168.529 466 C 168.819 466, 171.731 464.650, 175 463 C 178.269 461.350, 182.319 460, 184 460 C 185.681 460, 189.731 461.350, 193 463 C 196.269 464.650, 199.181 466, 199.471 466 C 199.762 466, 200 460.150, 200 453 L 200 440 184 440 L 168 440 168 453"
          stroke="none" fill="#080606" fill-rule="evenodd"/>
    <path d="M 125.020 57.284 C 123.656 57.975, 121.975 59.656, 121.284 61.020 C 120.295 62.975, 120.026 94.415, 120.015 209.576 L 120 355.651 117.686 357.826 C 116.413 359.022, 114.613 360, 113.686 360 C 112.386 360, 112 360.915, 112 364 C 112 367.206, 112.362 368, 113.826 368 C 116.802 368, 120 372.216, 120 376.140 C 120 379.934, 116.734 384, 113.686 384 C 112.386 384, 112 384.915, 112 388 C 112 391.206, 112.362 392, 113.826 392 C 114.830 392, 116.592 393.013, 117.743 394.250 C 119.555 396.200, 119.878 397.994, 120.167 407.725 C 120.632 423.389, 120.636 423.393, 138.525 423.827 L 152 424.155 152 310.252 L 152 196.349 154.314 194.174 C 157.488 191.193, 162.407 191.316, 165.545 194.455 L 168 196.909 168 310.455 L 168 424 277.545 424 L 387.091 424 389.545 421.545 L 392 419.091 392 260 L 392 100.909 394.455 98.455 C 395.805 97.105, 397.605 96, 398.455 96 C 399.591 96, 400 94.941, 400 92 C 400 89.059, 399.591 88, 398.455 88 C 397.605 88, 395.805 86.895, 394.455 85.545 C 392.144 83.234, 392 82.442, 392 72 C 392 61.558, 391.856 60.766, 389.545 58.455 L 387.091 56 277.545 56 L 168 56 168 117.545 L 168 179.091 165.545 181.545 C 162.298 184.793, 157.153 184.857, 154.174 181.686 L 152 179.371 152 117.686 L 152 56 139.750 56.015 C 131.936 56.024, 126.602 56.484, 125.020 57.284 M 220.980 120.731 C 209.408 132.444, 199.597 143.244, 198.480 145.500 C 195.783 150.949, 195.783 161.051, 198.480 166.500 C 199.597 168.756, 209.408 179.556, 220.980 191.269 C 243.082 213.639, 243.934 214.199, 249.365 209.927 C 251.375 208.346, 252 206.965, 252 204.103 C 252 200.579, 250.781 199.094, 232 179.723 C 214.751 161.932, 212 158.669, 212 156 C 212 153.331, 214.751 150.068, 232 132.277 C 250.781 112.906, 252 111.421, 252 107.897 C 252 105.035, 251.375 103.654, 249.365 102.073 C 243.934 97.801, 243.082 98.361, 220.980 120.731 M 310.635 102.073 C 308.632 103.648, 308.005 105.027, 308.019 107.823 C 308.037 111.237, 309.468 112.982, 328.019 132.210 C 345.187 150.004, 348 153.353, 348 156 C 348 158.647, 345.187 161.996, 328.019 179.790 C 309.468 199.018, 308.037 200.763, 308.019 204.177 C 308.005 206.973, 308.632 208.352, 310.635 209.927 C 316.022 214.165, 316.918 213.578, 339.122 191.250 C 350.471 179.837, 360.590 168.925, 361.608 167 C 362.935 164.492, 363.460 161.374, 363.460 156 C 363.460 150.626, 362.935 147.508, 361.608 145 C 360.590 143.075, 350.471 132.162, 339.122 120.750 C 316.918 98.422, 316.022 97.835, 310.635 102.073 M 285.646 110.250 C 283.570 112.144, 281.507 118.857, 272.590 152.728 C 266.766 174.854, 262 194.508, 262 196.406 C 262 198.941, 262.698 200.404, 264.635 201.927 C 268.048 204.613, 271.270 204.554, 274.402 201.750 C 276.553 199.825, 278.503 193.467, 287.912 157.694 C 299.567 113.380, 299.628 112.954, 294.841 109.601 C 291.670 107.380, 288.549 107.601, 285.646 110.250 M 194.884 269.893 C 193.102 271.336, 192.545 272.790, 192.545 276 C 192.545 279.210, 193.102 280.664, 194.884 282.107 C 197.136 283.930, 200.270 284, 280.156 284 L 363.091 284 365.545 281.545 C 367.093 279.998, 368 277.948, 368 276 C 368 274.052, 367.093 272.002, 365.545 270.455 L 363.091 268 280.156 268 C 200.270 268, 197.136 268.070, 194.884 269.893 M 194.884 305.893 C 193.102 307.336, 192.545 308.790, 192.545 312 C 192.545 315.210, 193.102 316.664, 194.884 318.107 C 197.130 319.926, 200.090 320, 270.555 320 L 343.888 320 346.611 317.658 C 350.346 314.445, 350.346 309.555, 346.611 306.342 L 343.888 304 270.555 304 C 200.090 304, 197.130 304.074, 194.884 305.893 M 194.884 341.893 C 193.102 343.336, 192.545 344.790, 192.545 348 C 192.545 351.210, 193.102 352.664, 194.884 354.107 C 197.136 355.930, 200.270 356, 280.156 356 L 363.091 356 365.545 353.545 C 367.093 351.998, 368 349.948, 368 348 C 368 346.052, 367.093 344.002, 365.545 342.455 L 363.091 340 280.156 340 C 200.270 340, 197.136 340.070, 194.884 341.893 M 168 453 C 168 460.150, 168.238 466, 168.529 466 C 168.819 466, 171.731 464.650, 175 463 C 178.269 461.350, 182.319 460, 184 460 C 185.681 460, 189.731 461.350, 193 463 C 196.269 464.650, 199.181 466, 199.471 466 C 199.762 466, 200 460.150, 200 453 L 200 440 184 440 L 168 440 168 453"
          stroke="none" fill="#bfdce6" fill-rule="evenodd"/>
</svg>