<svg xmlns="http://www.w3.org/2000/svg" preserveAspectRatio="none" width="1923.603" height="879.922">
    <defs>
        <linearGradient id="a" x2="1" y2="1" gradientUnits="objectBoundingBox">
            <stop offset="0" stop-color="#504569"/>
            <stop offset="1" stop-color="#53726a"/>
        </linearGradient>
        <linearGradient id="b" x1="1" x2=".167" y1="1.037" gradientUnits="objectBoundingBox">
            <stop offset="0" stop-color="#ff0" stop-opacity=".08"/>
            <stop offset="1" stop-color="#ffb" stop-opacity=".078"/>
        </linearGradient>
    </defs>
    <path fill="url(#a)" d="M0 0h1923.6v879.92H0z" transform="translate(0 -5) translate(0 5)"/>
    <path fill="rgba(255,255,255,0.47)" fill-rule="evenodd" d="M52.23 879.92h214.13l563.27-205 6.08-87.36z"
          opacity=".101"/>
    <path fill="rgba(255,255,255,0.18)" fill-rule="evenodd" d="M6.44 719.58L.36 806.92l563.27-205 6.08-87.36z"
          opacity=".332"/>
    <path fill="url(#b)" d="M1923.6 484.98L0 .08h1923.6z" transform="translate(0 -5) translate(0 5)" opacity=".628"/>
    <svg version="1.1" viewBox="0 0 48 48" xmlns="http://www.w3.org/2000/svg" xmlns:cc="http://creativecommons.org/ns#"
         xmlns:dc="http://purl.org/dc/elements/1.1/" xmlns:rdf="http://www.w3.org/1999/02/22-rdf-syntax-ns#"
         xmlns:xlink="http://www.w3.org/1999/xlink">
        <metadata>
            <rdf:RDF>
                <cc:Work rdf:about="">
                    <dc:format>image/svg+xml</dc:format>
                    <dc:type rdf:resource="http://purl.org/dc/dcmitype/StillImage"/>
                    <dc:title/>
                </cc:Work>
            </rdf:RDF>
        </metadata>
        <defs>
            <style>.a{fill:#53726a;}</style>
            <linearGradient id="linearGradient871" x1="1.6867" x2="25.441" y1="13.283" y2="13.283"
                            gradientTransform="translate(1.8272 1.8975)" gradientUnits="userSpaceOnUse">
                <stop stop-color="#536c5d" offset="0"/>
                <stop stop-color="#536c5d" stop-opacity="0" offset="1"/>
            </linearGradient>
        </defs>
        <path class="a"
              d="m26.526 12.691a0.7422 0.74659 0 0 0-0.74231 0.74671v0.7467h-2.0427a8.3634 8.4129 0 0 0-1.7469-4.2381l1.4456-1.4543 0.58188 0.49562a0.74228 0.74667 0 1 0 1.0498-1.0559l-2.4743-2.489a0.74227 0.74666 0 0 0-1.0498 1.0559l0.49272 0.58531-1.4457 1.4543a8.3644 8.4139 0 0 0-4.2132-1.7571v-2.0549h0.74231a0.74231 0.74671 0 0 0 0-1.4934h-3.4641a0.74231 0.74671 0 0 0 0 1.4934h0.74231v2.0549a8.3644 8.4139 0 0 0-4.2132 1.7571l-1.4457-1.4543 0.49272-0.58531a0.74227 0.74666 0 0 0-1.0498-1.0559l-2.4173 2.489a0.74228 0.74667 0 0 0 1.0498 1.0559l0.5249-0.49562 1.4456 1.4543a8.3634 8.4129 0 0 0-1.7469 4.2381h-2.0427v-0.7467a0.74231 0.74671 0 0 0-1.4846 0v3.4846a0.74231 0.74671 0 0 0 1.4846 0v-0.74671h2.0427a8.3634 8.4129 0 0 0 1.7469 4.2381l-1.4456 1.4543-0.58188-0.49562a0.74228 0.74667 0 0 0-1.0498 1.0559l2.4743 2.489a0.74227 0.74666 0 1 0 1.0498-1.0559l-0.49272-0.58531 1.4457-1.4543a8.3644 8.4139 0 0 0 4.2133 1.7571v2.0549h-0.74231a0.74231 0.74671 0 0 0 0 1.4934h3.4641a0.74231 0.74671 0 0 0 0-1.4934h-0.74231v-2.0549a8.3644 8.4139 0 0 0 4.2133-1.7571l1.4457 1.4543-0.49272 0.58531a0.74227 0.74666 0 0 0 1.0498 1.0559l2.4743-2.489a0.74228 0.74667 0 1 0-1.0498-1.0559l-0.58188 0.49562-1.4456-1.4543a8.3634 8.4129 0 0 0 1.7469-4.2381h2.0427v0.74671a0.74231 0.74671 0 0 0 1.4846 0v-3.4846a0.7422 0.74659 0 0 0-0.74231-0.74671zm-13.857 0.4978a1.7321 1.7423 0 1 1 1.7321-1.7423 1.732 1.7423 0 0 1-1.7321 1.7423zm5.6911 6.4714a0.98975 0.99561 0 1 1 0.98975-0.99561 0.98978 0.99564 0 0 1-0.98975 0.99561z"
              fill="url(#linearGradient871)" stroke-width=".49634"/>
    </svg>
</svg>