<?xml version="1.0" encoding="utf-8"?>
<!-- Generator: Adobe Illustrator 25.2.3, SVG Export Plug-In . SVG Version: 6.00 Build 0)  -->
<svg version="1.1" id="Layer_1" xmlns="http://www.w3.org/2000/svg" xmlns:xlink="http://www.w3.org/1999/xlink" x="0px" y="0px"
	 viewBox="0 0 158 71" style="enable-background:new 0 0 158 71;" xml:space="preserve">
<style type="text/css">
	.st0{fill:#646464;}
	.st1{fill:#5A1982;}
	.st2{fill:#C4D600;}
</style>
<g>
	<path class="st0" d="M6.4,31.7c0-7.9,5.8-13.8,14.1-13.8c7.1,0,12.4,4.3,13.8,10.6h-6.9c-1.1-2.7-3.5-4.5-6.8-4.5
		c-4.5,0-7.4,3.2-7.4,7.7c0,4.5,3,7.7,7.4,7.7c3.3,0,5.8-1.8,6.8-4.5h6.9c-1.3,6.3-6.7,10.6-13.8,10.6C12.3,45.5,6.4,39.7,6.4,31.7z
		"/>
	<path class="st0" d="M36.8,31.7c0-7.9,5.8-13.8,14.1-13.8C59.2,18,65,23.8,65,31.7s-5.8,13.8-14.1,13.8
		C42.7,45.5,36.8,39.7,36.8,31.7z M58.4,31.7c0-4.5-3-7.7-7.4-7.7s-7.4,3.2-7.4,7.7c0,4.5,3,7.7,7.4,7.7S58.4,36.2,58.4,31.7z"/>
	<path class="st0" d="M69.1,18.5h10.7c7,0,10.1,3.8,10.1,9.1c0,3.7-1.6,6.8-5,8.2l5.9,9.2h-7.8l-4.7-8.3h-2.8V45h-6.6V18.5z
		 M79.9,30.6c2.6,0,3.4-1.3,3.4-3c0-1.7-0.8-3-3.4-3h-4.2v6H79.9z"/>
	<path class="st0" d="M94.3,18.5h19.5v6.1h-13v4.3h10.6v5.3h-10.6v4.7h13V45H94.3V18.5z"/>
</g>
<g>
	<circle class="st1" cx="5.8" cy="14.3" r="4.4"/>
	<circle class="st1" cx="18.2" cy="6.2" r="3.1"/>
	<circle class="st1" cx="28.7" cy="2.3" r="2.1"/>
	<circle class="st1" cx="38.4" cy="2.3" r="1.8"/>
	<circle class="st1" cx="46.9" cy="4.1" r="1.5"/>
	<circle class="st1" cx="57.6" cy="10.2" r="1.1"/>
	<circle class="st1" cx="52.7" cy="6.7" r="1.3"/>
	<circle class="st1" cx="60.5" cy="14.6" r="0.8"/>
</g>
<g>
	<circle class="st2" cx="119.1" cy="56.7" r="4.4"/>
	<circle class="st2" cx="106.7" cy="64.8" r="3.1"/>
	<circle class="st2" cx="96.2" cy="68.7" r="2.1"/>
	<circle class="st2" cx="86.5" cy="68.7" r="1.8"/>
	<circle class="st2" cx="78" cy="66.9" r="1.5"/>
	<circle class="st2" cx="67.3" cy="60.8" r="1.1"/>
	<circle class="st2" cx="72.2" cy="64.3" r="1.3"/>
	<circle class="st2" cx="64.4" cy="56.4" r="0.8"/>
</g>
<g>
	<path class="st0" d="M10.2,48.4h0.4c0.1-0.5,0.1-0.8,0.2-1c0.1-0.2,0.2-0.3,0.3-0.4c0.1-0.1,0.3-0.1,0.5-0.1c0.3,0,0.5,0.1,0.7,0.2
		l-0.1,0.7c-0.1-0.1-0.2-0.2-0.4-0.2c-0.1,0-0.2,0-0.2,0.1c0,0.1-0.1,0.3-0.1,0.6H12l-0.1,0.8h-0.6L11,52.1h-0.9l0.4-2.9h-0.4
		L10.2,48.4z"/>
	<path class="st0" d="M14.2,48.3c0.3,0,0.6,0.1,0.9,0.2c0.3,0.2,0.5,0.4,0.6,0.6c0.1,0.3,0.2,0.6,0.2,0.9c0,0.6-0.2,1.1-0.6,1.5
		c-0.4,0.4-0.9,0.6-1.5,0.6c-0.5,0-0.9-0.2-1.3-0.5s-0.5-0.7-0.5-1.2c0-0.6,0.2-1.1,0.6-1.5C13.2,48.5,13.7,48.3,14.2,48.3z
		 M14.2,49.2c-0.4,0-0.7,0.1-0.9,0.4c-0.2,0.3-0.3,0.6-0.3,0.9c0,0.3,0.1,0.5,0.2,0.7c0.2,0.2,0.4,0.3,0.6,0.3
		c0.4,0,0.7-0.1,0.9-0.4s0.3-0.5,0.3-0.9c0-0.3-0.1-0.5-0.3-0.7C14.7,49.3,14.4,49.2,14.2,49.2z"/>
	<path class="st0" d="M16.8,48.4h0.8l-0.1,0.5c0.2-0.4,0.5-0.6,0.9-0.6c0.1,0,0.2,0,0.3,0.1l-0.3,0.8c-0.1,0-0.1,0-0.2,0
		c-0.2,0-0.3,0.1-0.5,0.3c-0.1,0.2-0.2,0.6-0.3,1.2l-0.2,1.4h-0.9L16.8,48.4z"/>
	<path class="st0" d="M18.8,48.4h0.9l0.5,2l1.1-2h0.4l0.5,2l1.1-2h1l-2,3.7h-0.4l-0.5-1.9l-1.1,1.9h-0.4L18.8,48.4z"/>
	<path class="st0" d="M27.5,48.4h0.9l-0.5,3.7H27l0.1-0.4c-0.2,0.2-0.4,0.3-0.6,0.4c-0.2,0.1-0.4,0.1-0.6,0.1
		c-0.5,0-0.9-0.2-1.2-0.5c-0.3-0.4-0.4-0.8-0.4-1.3c0-0.4,0.1-0.7,0.3-1c0.2-0.3,0.4-0.6,0.7-0.8s0.6-0.3,1-0.3
		c0.2,0,0.4,0.1,0.6,0.2c0.2,0.1,0.4,0.3,0.5,0.5L27.5,48.4z M26.2,51.4c0.2,0,0.4,0,0.6-0.1c0.2-0.1,0.3-0.3,0.4-0.5
		c0.1-0.2,0.2-0.4,0.2-0.7c0-0.3-0.1-0.5-0.3-0.7s-0.4-0.3-0.7-0.3c-0.3,0-0.6,0.1-0.8,0.4s-0.3,0.5-0.3,0.9c0,0.3,0.1,0.5,0.3,0.7
		C25.7,51.3,25.9,51.4,26.2,51.4z"/>
	<path class="st0" d="M29.2,48.4H30l-0.1,0.5c0.2-0.4,0.5-0.6,0.9-0.6c0.1,0,0.2,0,0.3,0.1l-0.3,0.8c-0.1,0-0.1,0-0.2,0
		c-0.2,0-0.3,0.1-0.5,0.3c-0.1,0.2-0.2,0.6-0.3,1.2l-0.2,1.4h-0.9L29.2,48.4z"/>
	<path class="st0" d="M34.5,47h0.9l-0.7,5.1h-0.9l0.1-0.4c-0.2,0.2-0.4,0.3-0.6,0.4c-0.2,0.1-0.4,0.1-0.6,0.1
		c-0.5,0-0.9-0.2-1.2-0.5c-0.3-0.4-0.4-0.8-0.4-1.3c0-0.4,0.1-0.7,0.3-1c0.2-0.3,0.4-0.6,0.7-0.8c0.3-0.2,0.6-0.3,1-0.3
		c0.2,0,0.4,0.1,0.6,0.2c0.2,0.1,0.4,0.3,0.5,0.5L34.5,47z M33,51.4c0.2,0,0.4,0,0.6-0.1c0.2-0.1,0.3-0.3,0.4-0.5
		c0.1-0.2,0.2-0.4,0.2-0.7c0-0.3-0.1-0.5-0.3-0.7c-0.2-0.2-0.4-0.3-0.7-0.3c-0.3,0-0.6,0.1-0.8,0.4c-0.2,0.2-0.3,0.5-0.3,0.9
		c0,0.3,0.1,0.5,0.3,0.7C32.5,51.3,32.7,51.4,33,51.4z"/>
	<path class="st0" d="M36.1,49.9h1.8l-0.1,0.8H36L36.1,49.9z"/>
	<path class="st0" d="M39.3,47.1h0.9L40,48.4h0.6l-0.1,0.8h-0.6l-0.4,2.9h-0.9l0.4-2.9h-0.4l0.1-0.8h0.4L39.3,47.1z"/>
	<path class="st0" d="M41.4,47h0.9L42,48.8c0.3-0.3,0.7-0.5,1.1-0.5c0.3,0,0.6,0.1,0.8,0.3c0.2,0.2,0.3,0.5,0.3,0.8
		c0,0.1,0,0.4-0.1,0.6l-0.3,2.1H43l0.3-2c0-0.2,0-0.4,0-0.5c0-0.1,0-0.3-0.1-0.3c-0.1-0.1-0.2-0.1-0.4-0.1c-0.2,0-0.3,0.1-0.5,0.2
		c-0.2,0.1-0.3,0.3-0.3,0.4c-0.1,0.2-0.2,0.5-0.2,1.1l-0.2,1.3h-0.9L41.4,47z"/>
	<path class="st0" d="M45.2,48.4h0.9l-0.5,3.7h-0.9L45.2,48.4z M45.9,46.9c0.2,0,0.3,0.1,0.4,0.2c0.1,0.1,0.2,0.2,0.2,0.4
		c0,0.2-0.1,0.3-0.2,0.4S46,48,45.9,48c-0.2,0-0.3-0.1-0.4-0.2c-0.1-0.1-0.2-0.2-0.2-0.4c0-0.2,0.1-0.3,0.2-0.4
		C45.6,47,45.7,46.9,45.9,46.9z"/>
	<path class="st0" d="M47,48.4h0.9l-0.1,0.4c0.3-0.3,0.7-0.5,1.1-0.5c0.3,0,0.6,0.1,0.8,0.3c0.2,0.2,0.3,0.5,0.3,0.8
		c0,0.1,0,0.4-0.1,0.6l-0.3,2.1h-0.9l0.3-2c0-0.2,0-0.4,0-0.5c0-0.1,0-0.3-0.1-0.3c-0.1-0.1-0.2-0.1-0.4-0.1c-0.2,0-0.3,0.1-0.5,0.2
		c-0.2,0.1-0.3,0.3-0.4,0.4c-0.1,0.2-0.2,0.5-0.2,1l-0.2,1.3h-0.9L47,48.4z"/>
	<path class="st0" d="M51.4,47h0.9l-0.4,2.7l1.4-1.3h1.2l-1.9,1.6l1.6,2h-1.1l-1.5-1.8l-0.2,1.8h-0.9L51.4,47z"/>
	<path class="st0" d="M55.1,48.4H56l-0.5,3.7h-0.9L55.1,48.4z M55.7,46.9c0.2,0,0.3,0.1,0.4,0.2c0.1,0.1,0.2,0.2,0.2,0.4
		c0,0.2-0.1,0.3-0.2,0.4C56,48,55.9,48,55.7,48c-0.2,0-0.3-0.1-0.4-0.2c-0.1-0.1-0.2-0.2-0.2-0.4c0-0.2,0.1-0.3,0.2-0.4
		C55.4,47,55.6,46.9,55.7,46.9z"/>
	<path class="st0" d="M56.9,48.4h0.9l-0.1,0.4c0.3-0.3,0.7-0.5,1.1-0.5c0.3,0,0.6,0.1,0.8,0.3c0.2,0.2,0.3,0.5,0.3,0.8
		c0,0.1,0,0.4-0.1,0.6l-0.3,2.1h-0.9l0.3-2c0-0.2,0-0.4,0-0.5c0-0.1,0-0.3-0.1-0.3c-0.1-0.1-0.2-0.1-0.4-0.1c-0.2,0-0.3,0.1-0.5,0.2
		c-0.2,0.1-0.3,0.3-0.4,0.4c-0.1,0.2-0.2,0.5-0.2,1l-0.2,1.3h-0.9L56.9,48.4z"/>
	<path class="st0" d="M63.8,48.4h0.9l-0.4,3c-0.1,0.6-0.2,1-0.2,1.2c-0.1,0.3-0.4,0.5-0.7,0.7c-0.3,0.2-0.7,0.3-1.2,0.3
		c-0.4,0-0.7-0.1-1-0.2c-0.3-0.2-0.5-0.3-0.7-0.6l0.8-0.4c0.2,0.2,0.5,0.4,0.9,0.4c0.2,0,0.4,0,0.6-0.1c0.2-0.1,0.3-0.2,0.4-0.3
		c0.1-0.1,0.2-0.3,0.2-0.6c-0.3,0.3-0.7,0.4-1.1,0.4c-0.3,0-0.6-0.1-0.8-0.2c-0.3-0.1-0.4-0.4-0.6-0.6c-0.1-0.3-0.2-0.6-0.2-0.9
		c0-0.4,0.1-0.7,0.3-1c0.2-0.3,0.4-0.6,0.8-0.8c0.3-0.2,0.7-0.3,1-0.3c0.2,0,0.4,0,0.6,0.1c0.2,0.1,0.3,0.2,0.5,0.4L63.8,48.4z
		 M62.7,49.2c-0.3,0-0.6,0.1-0.9,0.3c-0.2,0.2-0.3,0.5-0.3,0.9c0,0.3,0.1,0.5,0.3,0.7c0.2,0.2,0.4,0.2,0.7,0.2
		c0.2,0,0.4-0.1,0.6-0.2c0.2-0.1,0.3-0.2,0.4-0.4s0.2-0.4,0.2-0.6c0-0.3-0.1-0.5-0.3-0.6C63.2,49.3,63,49.2,62.7,49.2z"/>
	<path class="st0" d="M69.6,48.9l-0.4,0.7c-0.1-0.2-0.2-0.3-0.4-0.4c-0.1-0.1-0.2-0.1-0.3-0.1c-0.1,0-0.2,0-0.2,0.1
		c-0.1,0-0.1,0.1-0.1,0.2c0,0.1,0,0.1,0.1,0.2c0,0.1,0.2,0.2,0.4,0.3c0.3,0.2,0.6,0.5,0.7,0.6c0.1,0.2,0.2,0.4,0.2,0.6
		c0,0.3-0.1,0.5-0.3,0.8c-0.2,0.2-0.6,0.4-1,0.4c-0.2,0-0.5,0-0.7-0.1c-0.2-0.1-0.4-0.3-0.7-0.5l0.6-0.7c0.3,0.3,0.5,0.5,0.8,0.5
		c0.1,0,0.2,0,0.3-0.1c0.1-0.1,0.1-0.1,0.1-0.2c0-0.1,0-0.1-0.1-0.2c-0.1-0.1-0.2-0.2-0.4-0.4c-0.3-0.2-0.5-0.4-0.6-0.5
		c-0.1-0.2-0.2-0.4-0.2-0.6c0-0.3,0.1-0.6,0.4-0.8c0.2-0.2,0.5-0.3,0.8-0.3c0.2,0,0.4,0.1,0.6,0.2C69.3,48.6,69.5,48.7,69.6,48.9z"
		/>
	<path class="st0" d="M73.3,48.4h0.9l-0.5,3.7h-0.9l0.1-0.4c-0.2,0.2-0.4,0.3-0.6,0.4c-0.2,0.1-0.4,0.1-0.6,0.1
		c-0.5,0-0.9-0.2-1.2-0.5c-0.3-0.4-0.4-0.8-0.4-1.3c0-0.4,0.1-0.7,0.3-1c0.2-0.3,0.4-0.6,0.7-0.8c0.3-0.2,0.6-0.3,1-0.3
		c0.2,0,0.4,0.1,0.6,0.2c0.2,0.1,0.4,0.3,0.5,0.5L73.3,48.4z M72,51.4c0.2,0,0.4,0,0.6-0.1c0.2-0.1,0.3-0.3,0.4-0.5
		c0.1-0.2,0.2-0.4,0.2-0.7c0-0.3-0.1-0.5-0.3-0.7c-0.2-0.2-0.4-0.3-0.7-0.3c-0.3,0-0.6,0.1-0.8,0.4c-0.2,0.2-0.3,0.5-0.3,0.9
		c0,0.3,0.1,0.5,0.3,0.7C71.5,51.3,71.7,51.4,72,51.4z"/>
	<path class="st0" d="M75.3,47h0.9l-0.7,5.1h-0.9L75.3,47z"/>
	<path class="st0" d="M79.1,51l0.8,0.4c-0.2,0.2-0.4,0.4-0.7,0.6c-0.3,0.1-0.6,0.2-1,0.2c-0.6,0-1-0.2-1.3-0.5
		c-0.3-0.3-0.5-0.7-0.5-1.3c0-0.6,0.2-1.1,0.6-1.5s0.9-0.6,1.5-0.6c0.3,0,0.7,0.1,0.9,0.2c0.3,0.2,0.5,0.4,0.6,0.7
		c0.2,0.3,0.2,0.6,0.2,0.9c0,0.1,0,0.2,0,0.4h-2.9c0,0.3,0.1,0.5,0.3,0.6c0.2,0.2,0.4,0.2,0.7,0.2C78.6,51.4,78.9,51.3,79.1,51z
		 M79.4,49.9c-0.1-0.2-0.2-0.4-0.3-0.5c-0.2-0.1-0.3-0.2-0.6-0.2c-0.2,0-0.4,0.1-0.6,0.2c-0.2,0.1-0.3,0.3-0.4,0.5H79.4z"/>
	<path class="st0" d="M83.4,48.9l-0.4,0.7c-0.1-0.2-0.2-0.3-0.4-0.4c-0.1-0.1-0.2-0.1-0.3-0.1c-0.1,0-0.2,0-0.2,0.1
		c-0.1,0-0.1,0.1-0.1,0.2c0,0.1,0,0.1,0.1,0.2c0,0.1,0.2,0.2,0.4,0.3c0.3,0.2,0.6,0.5,0.7,0.6c0.1,0.2,0.2,0.4,0.2,0.6
		c0,0.3-0.1,0.5-0.3,0.8s-0.6,0.4-1,0.4c-0.2,0-0.5,0-0.7-0.1c-0.2-0.1-0.4-0.3-0.7-0.5l0.6-0.7c0.3,0.3,0.5,0.5,0.8,0.5
		c0.1,0,0.2,0,0.3-0.1c0.1-0.1,0.1-0.1,0.1-0.2c0-0.1,0-0.1-0.1-0.2c-0.1-0.1-0.2-0.2-0.4-0.4c-0.3-0.2-0.5-0.4-0.6-0.5
		c-0.1-0.2-0.2-0.4-0.2-0.6c0-0.3,0.1-0.6,0.4-0.8c0.2-0.2,0.5-0.3,0.8-0.3c0.2,0,0.4,0.1,0.6,0.2C83.1,48.6,83.2,48.7,83.4,48.9z"
		/>
	<path class="st0" d="M88.3,48.9l-0.4,0.7c-0.1-0.2-0.2-0.3-0.4-0.4c-0.1-0.1-0.2-0.1-0.3-0.1c-0.1,0-0.2,0-0.2,0.1
		c-0.1,0-0.1,0.1-0.1,0.2c0,0.1,0,0.1,0.1,0.2c0,0.1,0.2,0.2,0.4,0.3c0.3,0.2,0.6,0.5,0.7,0.6c0.1,0.2,0.2,0.4,0.2,0.6
		c0,0.3-0.1,0.5-0.3,0.8c-0.2,0.2-0.6,0.4-1,0.4c-0.2,0-0.5,0-0.7-0.1c-0.2-0.1-0.4-0.3-0.7-0.5l0.6-0.7c0.3,0.3,0.5,0.5,0.8,0.5
		c0.1,0,0.2,0,0.3-0.1c0.1-0.1,0.1-0.1,0.1-0.2c0-0.1,0-0.1-0.1-0.2c-0.1-0.1-0.2-0.2-0.4-0.4c-0.3-0.2-0.5-0.4-0.6-0.5
		c-0.1-0.2-0.2-0.4-0.2-0.6c0-0.3,0.1-0.6,0.4-0.8c0.2-0.2,0.5-0.3,0.8-0.3c0.2,0,0.4,0.1,0.6,0.2C88,48.6,88.2,48.7,88.3,48.9z"/>
	<path class="st0" d="M91,48.3c0.3,0,0.6,0.1,0.9,0.2c0.3,0.2,0.5,0.4,0.6,0.6c0.1,0.3,0.2,0.6,0.2,0.9c0,0.6-0.2,1.1-0.6,1.5
		c-0.4,0.4-0.9,0.6-1.5,0.6c-0.5,0-0.9-0.2-1.3-0.5c-0.3-0.3-0.5-0.7-0.5-1.2c0-0.6,0.2-1.1,0.6-1.5C90,48.5,90.5,48.3,91,48.3z
		 M91,49.2c-0.4,0-0.7,0.1-0.9,0.4c-0.2,0.3-0.3,0.6-0.3,0.9c0,0.3,0.1,0.5,0.2,0.7s0.4,0.3,0.6,0.3c0.4,0,0.7-0.1,0.9-0.4
		c0.2-0.3,0.3-0.5,0.3-0.9c0-0.3-0.1-0.5-0.3-0.7C91.5,49.3,91.3,49.2,91,49.2z"/>
	<path class="st0" d="M93.9,47h0.9l-0.7,5.1h-0.9L93.9,47z"/>
	<path class="st0" d="M95.5,48.4h0.9l-0.3,1.9c0,0.2,0,0.4,0,0.5c0,0.2,0.1,0.3,0.2,0.4c0.1,0.1,0.3,0.2,0.4,0.2
		c0.2,0,0.4-0.1,0.5-0.2c0.1-0.1,0.2-0.4,0.3-0.9l0.3-1.8h0.9l-0.3,2c-0.1,0.4-0.2,0.8-0.3,1c-0.1,0.2-0.3,0.4-0.6,0.6
		c-0.2,0.1-0.5,0.2-0.8,0.2c-0.5,0-0.8-0.1-1.1-0.4c-0.3-0.3-0.4-0.6-0.4-1c0-0.3,0-0.6,0.1-1L95.5,48.4z"/>
	<path class="st0" d="M99.8,47.1h0.9l-0.2,1.4h0.6l-0.1,0.8h-0.6l-0.4,2.9h-0.9l0.4-2.9h-0.4l0.1-0.8h0.4L99.8,47.1z"/>
	<path class="st0" d="M101.6,48.4h0.9l-0.5,3.7h-0.9L101.6,48.4z M102.2,46.9c0.2,0,0.3,0.1,0.4,0.2c0.1,0.1,0.2,0.2,0.2,0.4
		c0,0.2-0.1,0.3-0.2,0.4c-0.1,0.1-0.2,0.2-0.4,0.2c-0.2,0-0.3-0.1-0.4-0.2s-0.2-0.2-0.2-0.4c0-0.2,0.1-0.3,0.2-0.4
		C102,47,102.1,46.9,102.2,46.9z"/>
	<path class="st0" d="M105.1,48.3c0.3,0,0.6,0.1,0.9,0.2c0.3,0.2,0.5,0.4,0.6,0.6c0.1,0.3,0.2,0.6,0.2,0.9c0,0.6-0.2,1.1-0.6,1.5
		c-0.4,0.4-0.9,0.6-1.5,0.6c-0.5,0-0.9-0.2-1.3-0.5S103,51,103,50.5c0-0.6,0.2-1.1,0.6-1.5C104,48.5,104.5,48.3,105.1,48.3z
		 M105,49.2c-0.4,0-0.7,0.1-0.9,0.4c-0.2,0.3-0.3,0.6-0.3,0.9c0,0.3,0.1,0.5,0.2,0.7c0.2,0.2,0.4,0.3,0.6,0.3c0.4,0,0.7-0.1,0.9-0.4
		c0.2-0.3,0.3-0.5,0.3-0.9c0-0.3-0.1-0.5-0.3-0.7C105.5,49.3,105.3,49.2,105,49.2z"/>
	<path class="st0" d="M107.9,48.4h0.9l-0.1,0.4c0.3-0.3,0.7-0.5,1.1-0.5c0.3,0,0.6,0.1,0.8,0.3c0.2,0.2,0.3,0.5,0.3,0.8
		c0,0.1,0,0.4-0.1,0.6l-0.3,2.1h-0.9l0.3-2c0-0.2,0-0.4,0-0.5c0-0.1,0-0.3-0.1-0.3c-0.1-0.1-0.2-0.1-0.4-0.1c-0.2,0-0.3,0.1-0.5,0.2
		c-0.2,0.1-0.3,0.3-0.4,0.4c-0.1,0.2-0.2,0.5-0.2,1l-0.2,1.3h-0.9L107.9,48.4z"/>
	<path class="st0" d="M114,48.9l-0.4,0.7c-0.1-0.2-0.2-0.3-0.4-0.4c-0.1-0.1-0.2-0.1-0.3-0.1c-0.1,0-0.2,0-0.2,0.1
		c-0.1,0-0.1,0.1-0.1,0.2c0,0.1,0,0.1,0.1,0.2c0,0.1,0.2,0.2,0.4,0.3c0.3,0.2,0.6,0.5,0.7,0.6c0.1,0.2,0.2,0.4,0.2,0.6
		c0,0.3-0.1,0.5-0.3,0.8c-0.2,0.2-0.6,0.4-1,0.4c-0.2,0-0.5,0-0.7-0.1c-0.2-0.1-0.4-0.3-0.7-0.5l0.6-0.7c0.3,0.3,0.5,0.5,0.8,0.5
		c0.1,0,0.2,0,0.3-0.1c0.1-0.1,0.1-0.1,0.1-0.2c0-0.1,0-0.1-0.1-0.2c-0.1-0.1-0.2-0.2-0.4-0.4c-0.3-0.2-0.5-0.4-0.6-0.5
		c-0.1-0.2-0.2-0.4-0.2-0.6c0-0.3,0.1-0.6,0.4-0.8c0.2-0.2,0.5-0.3,0.8-0.3c0.2,0,0.4,0.1,0.6,0.2C113.7,48.6,113.9,48.7,114,48.9z"
		/>
</g>
<g>
	<path class="st0" d="M116.3,30.1h0.4c0.1-0.5,0.1-0.8,0.2-1c0.1-0.2,0.2-0.3,0.3-0.4c0.1-0.1,0.3-0.1,0.5-0.1
		c0.3,0,0.5,0.1,0.7,0.2l-0.1,0.8c-0.1-0.1-0.3-0.2-0.4-0.2c-0.1,0-0.2,0-0.2,0.1c0,0.1-0.1,0.3-0.1,0.6h0.6l-0.1,0.8h-0.6l-0.4,3
		h-0.9l0.4-3h-0.4L116.3,30.1z"/>
	<path class="st0" d="M120.5,30c0.3,0,0.6,0.1,0.9,0.2c0.3,0.2,0.5,0.4,0.6,0.7c0.2,0.3,0.2,0.6,0.2,1c0,0.6-0.2,1.1-0.6,1.5
		s-0.9,0.6-1.6,0.6c-0.5,0-1-0.2-1.3-0.5c-0.3-0.3-0.5-0.8-0.5-1.3c0-0.6,0.2-1.2,0.7-1.6C119.4,30.2,119.9,30,120.5,30z
		 M120.4,30.9c-0.4,0-0.7,0.1-0.9,0.4c-0.2,0.3-0.3,0.6-0.3,0.9c0,0.3,0.1,0.5,0.2,0.7c0.2,0.2,0.4,0.3,0.7,0.3
		c0.4,0,0.7-0.1,0.9-0.4c0.2-0.3,0.3-0.6,0.3-0.9c0-0.3-0.1-0.5-0.3-0.7C120.9,31,120.7,30.9,120.4,30.9z"/>
	<path class="st0" d="M125.1,30c0.3,0,0.6,0.1,0.9,0.2c0.3,0.2,0.5,0.4,0.6,0.7c0.2,0.3,0.2,0.6,0.2,1c0,0.6-0.2,1.1-0.6,1.5
		s-0.9,0.6-1.6,0.6c-0.5,0-1-0.2-1.3-0.5c-0.3-0.3-0.5-0.8-0.5-1.3c0-0.6,0.2-1.2,0.7-1.6C124,30.2,124.5,30,125.1,30z M125,30.9
		c-0.4,0-0.7,0.1-0.9,0.4c-0.2,0.3-0.3,0.6-0.3,0.9c0,0.3,0.1,0.5,0.2,0.7c0.2,0.2,0.4,0.3,0.7,0.3c0.4,0,0.7-0.1,0.9-0.4
		c0.2-0.3,0.3-0.6,0.3-0.9c0-0.3-0.1-0.5-0.3-0.7C125.5,31,125.3,30.9,125,30.9z"/>
	<path class="st0" d="M130.9,28.6h0.9l-0.7,5.3h-0.9l0.1-0.4c-0.2,0.2-0.4,0.3-0.6,0.4c-0.2,0.1-0.4,0.1-0.6,0.1
		c-0.5,0-0.9-0.2-1.2-0.6c-0.3-0.4-0.4-0.8-0.4-1.3c0-0.4,0.1-0.7,0.3-1.1c0.2-0.3,0.4-0.6,0.8-0.8c0.3-0.2,0.7-0.3,1-0.3
		c0.2,0,0.5,0.1,0.7,0.2c0.2,0.1,0.4,0.3,0.5,0.5L130.9,28.6z M129.3,33.2c0.2,0,0.4-0.1,0.6-0.2c0.2-0.1,0.3-0.3,0.4-0.5
		c0.1-0.2,0.2-0.4,0.2-0.7c0-0.3-0.1-0.5-0.3-0.7s-0.4-0.3-0.7-0.3c-0.3,0-0.6,0.1-0.8,0.4c-0.2,0.2-0.3,0.6-0.3,0.9
		c0,0.3,0.1,0.5,0.3,0.7C128.8,33.1,129.1,33.2,129.3,33.2z"/>
	<path class="st0" d="M134.8,30.6l-0.4,0.7c-0.1-0.2-0.2-0.3-0.4-0.4c-0.1-0.1-0.2-0.1-0.4-0.1c-0.1,0-0.2,0-0.2,0.1
		c-0.1,0-0.1,0.1-0.1,0.2c0,0.1,0,0.1,0.1,0.2c0,0.1,0.2,0.2,0.4,0.3c0.4,0.3,0.6,0.5,0.7,0.7c0.1,0.2,0.2,0.4,0.2,0.6
		c0,0.3-0.1,0.5-0.3,0.8c-0.2,0.3-0.6,0.4-1,0.4c-0.3,0-0.5-0.1-0.7-0.2c-0.2-0.1-0.4-0.3-0.7-0.6l0.6-0.7c0.3,0.3,0.5,0.5,0.9,0.5
		c0.1,0,0.2,0,0.3-0.1c0.1-0.1,0.1-0.1,0.1-0.2c0-0.1,0-0.1-0.1-0.2c-0.1-0.1-0.2-0.2-0.5-0.4c-0.3-0.2-0.5-0.4-0.6-0.5
		c-0.2-0.2-0.2-0.4-0.2-0.7c0-0.3,0.1-0.6,0.4-0.8c0.2-0.2,0.5-0.3,0.9-0.3c0.2,0,0.4,0.1,0.7,0.2C134.5,30.3,134.6,30.4,134.8,30.6
		z"/>
	<path class="st0" d="M138.2,32.8l0.8,0.4c-0.2,0.2-0.4,0.4-0.7,0.6c-0.3,0.1-0.6,0.2-1,0.2c-0.6,0-1-0.2-1.4-0.5
		c-0.3-0.3-0.5-0.8-0.5-1.3c0-0.6,0.2-1.1,0.6-1.6c0.4-0.4,0.9-0.6,1.5-0.6c0.4,0,0.7,0.1,1,0.2c0.3,0.2,0.5,0.4,0.7,0.7
		c0.2,0.3,0.2,0.6,0.2,1c0,0.1,0,0.2,0,0.4h-3c0,0.3,0.1,0.5,0.3,0.6c0.2,0.2,0.4,0.2,0.7,0.2C137.6,33.1,137.9,33,138.2,32.8z
		 M138.4,31.6c-0.1-0.2-0.2-0.4-0.3-0.5c-0.2-0.1-0.4-0.2-0.6-0.2c-0.2,0-0.4,0.1-0.6,0.2c-0.2,0.1-0.3,0.3-0.4,0.5H138.4z"/>
	<path class="st0" d="M140.2,30.1h0.8l-0.1,0.5c0.2-0.4,0.5-0.6,0.9-0.6c0.1,0,0.2,0,0.3,0.1l-0.3,0.8c-0.1,0-0.1,0-0.2,0
		c-0.2,0-0.3,0.1-0.5,0.3c-0.1,0.2-0.3,0.6-0.3,1.3l-0.2,1.4h-0.9L140.2,30.1z"/>
	<path class="st0" d="M142.2,30.1h0.9l0.6,2.1l1.2-2.1h1l-2.2,3.8h-0.5L142.2,30.1z"/>
	<path class="st0" d="M146.6,30.1h0.9l-0.5,3.8h-0.9L146.6,30.1z M147.2,28.5c0.2,0,0.3,0.1,0.4,0.2c0.1,0.1,0.2,0.2,0.2,0.4
		c0,0.2-0.1,0.3-0.2,0.4c-0.1,0.1-0.2,0.2-0.4,0.2s-0.3-0.1-0.4-0.2c-0.1-0.1-0.2-0.2-0.2-0.4c0-0.2,0.1-0.3,0.2-0.4
		C146.9,28.6,147.1,28.5,147.2,28.5z"/>
	<path class="st0" d="M151.9,30.9l-0.8,0.4c-0.2-0.3-0.5-0.4-0.9-0.4c-0.3,0-0.5,0.1-0.7,0.2c-0.2,0.1-0.4,0.3-0.5,0.5
		c-0.1,0.2-0.2,0.4-0.2,0.6c0,0.3,0.1,0.5,0.3,0.7c0.2,0.2,0.4,0.3,0.8,0.3c0.4,0,0.8-0.2,1-0.5l0.7,0.5c-0.2,0.2-0.5,0.4-0.8,0.6
		c-0.3,0.1-0.7,0.2-1,0.2c-0.6,0-1.1-0.2-1.4-0.5c-0.3-0.3-0.5-0.8-0.5-1.3c0-0.6,0.2-1.1,0.6-1.6c0.4-0.4,1-0.6,1.6-0.6
		C151,30,151.5,30.3,151.9,30.9z"/>
	<path class="st0" d="M155.3,32.8l0.8,0.4c-0.2,0.2-0.4,0.4-0.7,0.6c-0.3,0.1-0.6,0.2-1,0.2c-0.6,0-1-0.2-1.4-0.5
		c-0.3-0.3-0.5-0.8-0.5-1.3c0-0.6,0.2-1.1,0.6-1.6c0.4-0.4,0.9-0.6,1.5-0.6c0.4,0,0.7,0.1,1,0.2c0.3,0.2,0.5,0.4,0.7,0.7
		c0.2,0.3,0.2,0.6,0.2,1c0,0.1,0,0.2,0,0.4h-3c0,0.3,0.1,0.5,0.3,0.6c0.2,0.2,0.4,0.2,0.7,0.2C154.8,33.1,155.1,33,155.3,32.8z
		 M155.6,31.6c-0.1-0.2-0.2-0.4-0.3-0.5c-0.2-0.1-0.4-0.2-0.6-0.2c-0.2,0-0.4,0.1-0.6,0.2c-0.2,0.1-0.3,0.3-0.4,0.5H155.6z"/>
</g>
</svg>
